<svg width="572" height="488" viewBox="0 0 572 488" fill="none" xmlns="http://www.w3.org/2000/svg">
<path d="M254.865 399.239H316.999L326.296 487.52H245.618L254.865 399.239Z" fill="url(#paint0_linear_34_2437)"/>
<rect x="192.579" y="478.387" width="186.756" height="9.13252" rx="2.86963" fill="url(#paint1_linear_34_2437)"/>
<path d="M0.469177 17.3297C0.469177 7.82061 8.17783 0.111938 17.6869 0.111938H554.227C563.736 0.111938 571.444 7.8206 571.444 17.3297V400.884C571.444 410.393 563.736 418.102 554.227 418.102H17.687C8.17786 418.102 0.469177 410.393 0.469177 400.884V17.3297Z" fill="url(#paint2_linear_34_2437)"/>
<rect x="11.2542" y="9.6629" width="549.405" height="367.7" rx="3.22833" fill="#F1F1F1" stroke="#E6E6E6" stroke-width="0.717407"/>
<defs>
<linearGradient id="paint0_linear_34_2437" x1="285.957" y1="399.239" x2="285.957" y2="487.52" gradientUnits="userSpaceOnUse">
<stop stop-color="#F1F1F1"/>
<stop offset="0.296875" stop-color="#F8F8F8"/>
<stop offset="0.645833" stop-color="white"/>
<stop offset="1" stop-color="#F1F1F1"/>
</linearGradient>
<linearGradient id="paint1_linear_34_2437" x1="192.579" y1="480.485" x2="197.927" y2="514.387" gradientUnits="userSpaceOnUse">
<stop stop-color="#F1F1F1"/>
<stop offset="0.484375" stop-color="white"/>
<stop offset="1" stop-color="#FAFAFA"/>
</linearGradient>
<linearGradient id="paint2_linear_34_2437" x1="0.469178" y1="96.135" x2="571.444" y2="337.892" gradientUnits="userSpaceOnUse">
<stop stop-color="#F1F1F1"/>
<stop offset="0.484375" stop-color="white"/>
<stop offset="1" stop-color="#FAFAFA"/>
</linearGradient>
</defs>
</svg>
