<svg width="100%" height="100%" viewBox="0 0 82 66" fill="none" xmlns="http://www.w3.org/2000/svg">
<path d="M63.437 4H18.563C13.6282 4 11.8668 4.58451 10.0703 5.54532C8.11953 6.58859 6.58859 8.11953 5.54532 10.0703C4.58451 11.8668 4 13.6282 4 18.563V47.437C4 52.3718 4.58451 54.1332 5.54532 55.9297C6.58859 57.8805 8.11953 59.4114 10.0703 60.4547C11.8668 61.4155 13.6282 62 18.563 62H63.437C68.3718 62 70.1332 61.4155 71.9297 60.4547C73.8805 59.4114 75.4114 57.8805 76.4547 55.9297C77.4155 54.1332 78 52.3718 78 47.437V18.563C78 13.6282 77.4155 11.8668 76.4547 10.0703C75.4114 8.11953 73.8805 6.58859 71.9297 5.54532C70.1332 4.58451 68.3718 4 63.437 4Z" fill="#00802F" stroke="white" stroke-width="4"/>
<rect x="5.92578" y="23.1953" width="70.1445" height="19.6094" fill="#F5F5F5"/>
<path d="M49.9935 42.8041H32.9883V30.5423C32.9883 28.1686 33.9825 25.9004 35.7261 24.2898C38.979 21.2851 43.9997 21.2774 47.2556 24.2788C49.0007 25.8875 49.9935 28.1527 49.9935 30.5261V42.8041Z" stroke="#F7D304" stroke-width="5"/>
</svg>
