<svg width="100%" height="100%" viewBox="0 0 78 63" fill="none" xmlns="http://www.w3.org/2000/svg">
<path d="M61.437 2H16.563C11.6282 2 9.86682 2.58451 8.07026 3.54532C6.11953 4.58859 4.58859 6.11953 3.54532 8.07026C2.58451 9.86682 2 11.6282 2 16.563V45.437C2 50.3718 2.58451 52.1332 3.54532 53.9297C4.58859 55.8805 6.11953 57.4114 8.07026 58.4547C9.86682 59.4155 11.6282 60 16.563 60H61.437C66.3718 60 68.1332 59.4155 69.9297 58.4547C71.8805 57.4114 73.4114 55.8805 74.4547 53.9297C75.4155 52.1332 76 50.3718 76 45.437V16.563C76 11.6282 75.4155 9.86682 74.4547 8.07026C73.4114 6.11953 71.8805 4.58859 69.9297 3.54532C68.1332 2.58451 66.3718 2 61.437 2Z" fill="#78C800" stroke="white" stroke-width="4"/>
<path fill-rule="evenodd" clip-rule="evenodd" d="M10.1116 30.3796L37.8217 10.1834C38.5237 9.6718 39.4757 9.6718 40.1777 10.1834L67.8878 30.3796C68.7804 31.0302 68.9767 32.2812 68.3261 33.1739C68.2025 33.3435 68.0529 33.4926 67.883 33.6157L40.1728 53.6851C39.4729 54.192 38.5265 54.192 37.8265 53.6851L10.1164 33.6157C9.22184 32.9678 9.02187 31.7173 9.66979 30.8227C9.79289 30.6528 9.94198 30.5032 10.1116 30.3796Z" fill="#FFC800"/>
<path d="M39 44C45.6274 44 51 38.6274 51 32C51 25.3726 45.6274 20 39 20C32.3726 20 27 25.3726 27 32C27 38.6274 32.3726 44 39 44Z" fill="#1CB0F6"/>
<path fill-rule="evenodd" clip-rule="evenodd" d="M27.0273 31.2095C27.1276 29.667 27.5193 28.204 28.1479 26.875L50.9884 32.5698C50.9161 34.1158 50.5513 35.5853 49.948 36.9242L27.0273 31.2095Z" fill="white"/>
</svg>
