<svg width="100%" height="100%" viewBox="0 0 82 66" fill="none" xmlns="http://www.w3.org/2000/svg">
<path fill-rule="evenodd" clip-rule="evenodd" d="M63.4393 4H18.5636C13.6286 4 11.8671 4.58454 10.0705 5.54539C8.11969 6.58869 6.58869 8.11969 5.54539 10.0705C4.58454 11.8671 4 13.6286 4 18.5636V47.4387C4 52.3737 4.58454 54.1352 5.54539 55.9318C6.58869 57.8826 8.11969 59.4136 10.0705 60.4569C11.8671 61.4178 13.6286 62.0023 18.5636 62.0023H63.4393C68.3744 62.0023 70.1358 61.4178 71.9325 60.4569C73.8833 59.4136 75.4143 57.8826 76.4576 55.9318C77.4184 54.1352 78.003 52.3737 78.003 47.4387V18.5636C78.003 13.6286 77.4184 11.8671 76.4576 10.0705C75.4143 8.11969 73.8833 6.58869 71.9325 5.54539C70.1358 4.58454 68.3744 4 63.4393 4Z" fill="#FF4B4B" stroke="white" stroke-width="4"/>
<path fill-rule="evenodd" clip-rule="evenodd" d="M18.5655 6H63.4412C67.8098 6 69.394 6.45486 70.9911 7.309C72.5882 8.16314 73.8416 9.41656 74.6957 11.0137C74.8678 11.3354 75.0237 11.6567 75.1629 12.0002H6.84375C6.98296 11.6567 7.13884 11.3354 7.31092 11.0137C8.16506 9.41656 9.41847 8.16314 11.0156 7.309C12.6127 6.45486 14.1968 6 18.5655 6Z" fill="#FFD300"/>
<path fill-rule="evenodd" clip-rule="evenodd" d="M76.0001 18C76.0019 18.1824 76.0028 18.37 76.0028 18.5631V24.0002H6V18.5631C6 18.37 6.00089 18.1824 6.00266 18H76.0001Z" fill="#FFD300"/>
<path fill-rule="evenodd" clip-rule="evenodd" d="M76.0028 30V36.0002H6L6 30H76.0028Z" fill="#FFD300"/>
<path fill-rule="evenodd" clip-rule="evenodd" d="M76.0028 47.4411C76.0028 47.6341 76.0019 47.8217 76.0001 48.0041H6.00266C6.00089 47.8217 6 47.6341 6 47.4411V42.0039H76.0028V47.4411Z" fill="#FFD300"/>
<path fill-rule="evenodd" clip-rule="evenodd" d="M75.1629 54.0039C75.0237 54.3475 74.8678 54.6687 74.6957 54.9905C73.8416 56.5876 72.5882 57.841 70.9911 58.6951C69.394 59.5493 67.8098 60.0041 63.4412 60.0041H18.5655C14.1968 60.0041 12.6127 59.5493 11.0156 58.6951C9.41847 57.841 8.16506 56.5876 7.31092 54.9905C7.13884 54.6687 6.98296 54.3475 6.84375 54.0039H75.1629Z" fill="#FFD300"/>
</svg>
