<svg width="100%" height="100%" viewBox="0 0 78 62" fill="none" xmlns="http://www.w3.org/2000/svg">
<path d="M61.437 2H16.563C11.6282 2 9.86682 2.58451 8.07026 3.54532C6.11953 4.58859 4.58859 6.11953 3.54532 8.07026C2.58451 9.86682 2 11.6282 2 16.563V45.437C2 50.3718 2.58451 52.1332 3.54532 53.9297C4.58859 55.8805 6.11953 57.4114 8.07026 58.4547C9.86682 59.4155 11.6282 60 16.563 60H61.437C66.3718 60 68.1332 59.4155 69.9297 58.4547C71.8805 57.4114 73.4114 55.8805 74.4547 53.9297C75.4155 52.1332 76 50.3718 76 45.437V16.563C76 11.6282 75.4155 9.86682 74.4547 8.07026C73.4114 6.11953 71.8805 4.58859 69.9297 3.54532C68.1332 2.58451 66.3718 2 61.437 2Z" fill="#EEEEEE" stroke="white" stroke-width="4"/>
<path d="M16.563 4H39V34H4V16.563C4 12.1946 4.45485 10.6105 5.30895 9.01346C6.16305 7.41642 7.41642 6.16305 9.01346 5.30895C10.6105 4.45485 12.1946 4 16.563 4Z" fill="#1CB0F6"/>
<path d="M61.437 4C65.8054 4 67.3895 4.45485 68.9865 5.30895C70.5836 6.16305 71.8369 7.41642 72.691 9.01346C72.8631 9.3352 73.019 9.65643 73.1582 10H31V4H61.437Z" fill="#1CB0F6"/>
<path d="M73.9973 16C73.9991 16.1824 74 16.37 74 16.563V22H29V16H73.9973Z" fill="#1CB0F6"/>
<path d="M74 28V34H4V28H74Z" fill="#1CB0F6"/>
<path d="M74 40V45.437C74 45.63 73.9991 45.8176 73.9973 46H4.00266C4.00089 45.8176 4 45.63 4 45.437V40H74Z" fill="#1CB0F6"/>
<path d="M73.1601 52C73.0209 52.3436 72.8651 52.6648 72.693 52.9865C71.8389 54.5836 70.5855 55.8369 68.9885 56.6911C67.3914 57.5452 65.8074 58 61.4389 58H16.565C12.1965 58 10.6124 57.5452 9.0154 56.6911C7.41837 55.8369 6.165 54.5836 5.3109 52.9865C5.13883 52.6648 4.98296 52.3436 4.84375 52H73.1601Z" fill="#1CB0F6"/>
<path d="M4 16H39V22H4V16Z" fill="#EEEEEE"/>
<path d="M18 4H24V36H18V4Z" fill="#EEEEEE"/>
</svg>
