<svg width="100%" height="100%" viewBox="0 0 78 62" fill="none" xmlns="http://www.w3.org/2000/svg">
<path fill-rule="evenodd" clip-rule="evenodd" d="M61.437 2H16.563C11.6282 2 9.86682 2.58451 8.07026 3.54532C6.11953 4.58859 4.58859 6.11953 3.54532 8.07026C2.58451 9.86682 2 11.6282 2 16.563V45.437C2 50.3718 2.58451 52.1332 3.54532 53.9297C4.58859 55.8805 6.11953 57.4114 8.07026 58.4547C9.86682 59.4155 11.6282 60 16.563 60H61.437C66.3718 60 68.1332 59.4155 69.9297 58.4547C71.8805 57.4114 73.4114 55.8805 74.4547 53.9297C75.4155 52.1332 76 50.3718 76 45.437V16.563C76 11.6282 75.4155 9.86682 74.4547 8.07026C73.4114 6.11953 71.8805 4.58859 69.9297 3.54532C68.1332 2.58451 66.3718 2 61.437 2Z" fill="#EEEEEE" stroke="white" stroke-width="4"/>
<path fill-rule="evenodd" clip-rule="evenodd" d="M16.565 4H61.4389C65.8074 4 67.3914 4.45485 68.9885 5.30895C70.5855 6.16305 71.8389 7.41642 72.693 9.01346C72.8651 9.3352 73.0209 9.65643 73.1601 10H4.84375C4.98296 9.65643 5.13883 9.3352 5.3109 9.01346C6.165 7.41642 7.41837 6.16305 9.0154 5.30895C10.6124 4.45485 12.1965 4 16.565 4Z" fill="#FF4B4B"/>
<path fill-rule="evenodd" clip-rule="evenodd" d="M73.9973 16C73.9991 16.1824 74 16.37 74 16.563V22H4V16.563C4 16.37 4.00089 16.1824 4.00266 16H73.9973Z" fill="#FF4B4B"/>
<path fill-rule="evenodd" clip-rule="evenodd" d="M74 28V34H4L4 28H74Z" fill="#FF4B4B"/>
<path fill-rule="evenodd" clip-rule="evenodd" d="M74 45.437C74 45.63 73.9991 45.8176 73.9973 46H4.00266C4.00089 45.8176 4 45.63 4 45.437V40H74V45.437Z" fill="#FF4B4B"/>
<path fill-rule="evenodd" clip-rule="evenodd" d="M73.1601 52C73.0209 52.3436 72.8651 52.6648 72.693 52.9865C71.8389 54.5836 70.5855 55.8369 68.9885 56.6911C67.3914 57.5452 65.8074 58 61.4389 58H16.565C12.1965 58 10.6124 57.5452 9.0154 56.6911C7.41837 55.8369 6.165 54.5836 5.3109 52.9865C5.13883 52.6648 4.98296 52.3436 4.84375 52H73.1601Z" fill="#FF4B4B"/>
<path fill-rule="evenodd" clip-rule="evenodd" d="M16.563 4H39V28H4V16.563C4 12.1946 4.45485 10.6105 5.30895 9.01346C6.16305 7.41642 7.41642 6.16305 9.01346 5.30895C10.6105 4.45485 12.1946 4 16.563 4Z" fill="#1CB0F6"/>
<path d="M31.8075 13.6014L30.5319 14.272C30.1314 14.4825 29.636 14.3286 29.4254 13.928C29.3416 13.7685 29.3127 13.5858 29.3431 13.4082L29.5867 11.9879C29.6099 11.8527 29.5651 11.7148 29.4669 11.6191L28.4349 10.6132C28.1109 10.2973 28.1043 9.77857 28.4201 9.45453C28.5459 9.3255 28.7107 9.24153 28.889 9.21562L30.3152 9.00839C30.4509 8.98867 30.5682 8.90343 30.6289 8.78046L31.2667 7.48816C31.4669 7.08238 31.9582 6.91578 32.364 7.11604C32.5256 7.19579 32.6564 7.32658 32.7361 7.48816L33.3739 8.78046C33.4346 8.90343 33.5519 8.98867 33.6876 9.00839L35.1138 9.21562C35.5616 9.28069 35.8718 9.69646 35.8068 10.1443C35.7809 10.3226 35.6969 10.4874 35.5679 10.6132L34.5359 11.6191C34.4377 11.7148 34.3929 11.8527 34.4161 11.9879L34.6597 13.4082C34.7362 13.8542 34.4366 14.2778 33.9906 14.3543C33.813 14.3848 33.6304 14.3558 33.4709 14.272L32.1953 13.6014C32.0739 13.5376 31.9289 13.5376 31.8075 13.6014Z" fill="white"/>
<path d="M31.8075 23.6014L30.5319 24.272C30.1314 24.4825 29.636 24.3286 29.4254 23.928C29.3416 23.7685 29.3127 23.5858 29.3431 23.4082L29.5867 21.9879C29.6099 21.8527 29.5651 21.7148 29.4669 21.6191L28.4349 20.6132C28.1109 20.2973 28.1043 19.7786 28.4201 19.4545C28.5459 19.3255 28.7107 19.2415 28.889 19.2156L30.3152 19.0084C30.4509 18.9887 30.5682 18.9034 30.6289 18.7805L31.2667 17.4882C31.4669 17.0824 31.9582 16.9158 32.364 17.116C32.5256 17.1958 32.6564 17.3266 32.7361 17.4882L33.3739 18.7805C33.4346 18.9034 33.5519 18.9887 33.6876 19.0084L35.1138 19.2156C35.5616 19.2807 35.8718 19.6965 35.8068 20.1443C35.7809 20.3226 35.6969 20.4874 35.5679 20.6132L34.5359 21.6191C34.4377 21.7148 34.3929 21.8527 34.4161 21.9879L34.6597 23.4082C34.7362 23.8542 34.4366 24.2778 33.9906 24.3543C33.813 24.3848 33.6304 24.3558 33.4709 24.272L32.1953 23.6014C32.0739 23.5376 31.9289 23.5376 31.8075 23.6014Z" fill="white"/>
<path d="M21.8075 13.6014L20.5319 14.272C20.1314 14.4825 19.636 14.3286 19.4254 13.928C19.3416 13.7685 19.3126 13.5858 19.3431 13.4082L19.5867 11.9879C19.6099 11.8527 19.5651 11.7148 19.4669 11.6191L18.4349 10.6132C18.1109 10.2973 18.1043 9.77857 18.4201 9.45453C18.5459 9.3255 18.7107 9.24153 18.889 9.21562L20.3152 9.00839C20.4509 8.98867 20.5682 8.90343 20.6289 8.78046L21.2667 7.48816C21.4669 7.08238 21.9582 6.91578 22.364 7.11604C22.5256 7.19579 22.6564 7.32658 22.7361 7.48816L23.3739 8.78046C23.4346 8.90343 23.5519 8.98867 23.6876 9.00839L25.1138 9.21562C25.5616 9.28069 25.8718 9.69646 25.8068 10.1443C25.7809 10.3226 25.6969 10.4874 25.5679 10.6132L24.5359 11.6191C24.4377 11.7148 24.3929 11.8527 24.4161 11.9879L24.6597 13.4082C24.7362 13.8542 24.4366 14.2778 23.9906 14.3543C23.813 14.3848 23.6303 14.3558 23.4709 14.272L22.1953 13.6014C22.0739 13.5376 21.9289 13.5376 21.8075 13.6014Z" fill="white"/>
<path d="M21.8075 23.6014L20.5319 24.272C20.1314 24.4825 19.636 24.3286 19.4254 23.928C19.3416 23.7685 19.3126 23.5858 19.3431 23.4082L19.5867 21.9879C19.6099 21.8527 19.5651 21.7148 19.4669 21.6191L18.4349 20.6132C18.1109 20.2973 18.1043 19.7786 18.4201 19.4545C18.5459 19.3255 18.7107 19.2415 18.889 19.2156L20.3152 19.0084C20.4509 18.9887 20.5682 18.9034 20.6289 18.7805L21.2667 17.4882C21.4669 17.0824 21.9582 16.9158 22.364 17.116C22.5256 17.1958 22.6564 17.3266 22.7361 17.4882L23.3739 18.7805C23.4346 18.9034 23.5519 18.9887 23.6876 19.0084L25.1138 19.2156C25.5616 19.2807 25.8718 19.6965 25.8068 20.1443C25.7809 20.3226 25.6969 20.4874 25.5679 20.6132L24.5359 21.6191C24.4377 21.7148 24.3929 21.8527 24.4161 21.9879L24.6597 23.4082C24.7362 23.8542 24.4366 24.2778 23.9906 24.3543C23.813 24.3848 23.6303 24.3558 23.4709 24.272L22.1953 23.6014C22.0739 23.5376 21.9289 23.5376 21.8075 23.6014Z" fill="white"/>
<path d="M11.8075 13.6014L10.5319 14.272C10.1314 14.4825 9.63601 14.3286 9.42543 13.928C9.34158 13.7685 9.31265 13.5858 9.34311 13.4082L9.58672 11.9879C9.6099 11.8527 9.56509 11.7148 9.46689 11.6191L8.43493 10.6132C8.1109 10.2973 8.10427 9.77857 8.42012 9.45453C8.5459 9.3255 8.7107 9.24153 8.88902 9.21562L10.3152 9.00839C10.4509 8.98867 10.5682 8.90343 10.6289 8.78046L11.2667 7.48816C11.4669 7.08238 11.9582 6.91578 12.364 7.11604C12.5256 7.19579 12.6564 7.32658 12.7361 7.48816L13.3739 8.78046C13.4346 8.90343 13.5519 8.98867 13.6876 9.00839L15.1138 9.21562C15.5616 9.28069 15.8718 9.69646 15.8068 10.1443C15.7809 10.3226 15.6969 10.4874 15.5679 10.6132L14.5359 11.6191C14.4377 11.7148 14.3929 11.8527 14.4161 11.9879L14.6597 13.4082C14.7362 13.8542 14.4366 14.2778 13.9906 14.3543C13.813 14.3848 13.6303 14.3558 13.4709 14.272L12.1953 13.6014C12.0739 13.5376 11.9289 13.5376 11.8075 13.6014Z" fill="white"/>
<path d="M11.8075 23.6014L10.5319 24.272C10.1314 24.4825 9.63601 24.3286 9.42543 23.928C9.34158 23.7685 9.31265 23.5858 9.34311 23.4082L9.58672 21.9879C9.6099 21.8527 9.56509 21.7148 9.46689 21.6191L8.43493 20.6132C8.1109 20.2973 8.10427 19.7786 8.42012 19.4545C8.5459 19.3255 8.7107 19.2415 8.88902 19.2156L10.3152 19.0084C10.4509 18.9887 10.5682 18.9034 10.6289 18.7805L11.2667 17.4882C11.4669 17.0824 11.9582 16.9158 12.364 17.116C12.5256 17.1958 12.6564 17.3266 12.7361 17.4882L13.3739 18.7805C13.4346 18.9034 13.5519 18.9887 13.6876 19.0084L15.1138 19.2156C15.5616 19.2807 15.8718 19.6965 15.8068 20.1443C15.7809 20.3226 15.6969 20.4874 15.5679 20.6132L14.5359 21.6191C14.4377 21.7148 14.3929 21.8527 14.4161 21.9879L14.6597 23.4082C14.7362 23.8542 14.4366 24.2778 13.9906 24.3543C13.813 24.3848 13.6303 24.3558 13.4709 24.272L12.1953 23.6014C12.0739 23.5376 11.9289 23.5376 11.8075 23.6014Z" fill="white"/>
</svg>
