<svg width="100%" height="100%" viewBox="0 0 78 62" fill="none" xmlns="http://www.w3.org/2000/svg">
<path d="M61.437 2H16.563C11.6282 2 9.86682 2.58451 8.07026 3.54532C6.11953 4.58859 4.58859 6.11953 3.54532 8.07026C2.58451 9.86682 2 11.6282 2 16.563V45.437C2 50.3718 2.58451 52.1332 3.54532 53.9297C4.58859 55.8805 6.11953 57.4114 8.07026 58.4547C9.86682 59.4155 11.6282 60 16.563 60H61.437C66.3718 60 68.1332 59.4155 69.9297 58.4547C71.8805 57.4114 73.4114 55.8805 74.4547 53.9297C75.4155 52.1332 76 50.3718 76 45.437V16.563C76 11.6282 75.4155 9.86682 74.4547 8.07026C73.4114 6.11953 71.8805 4.58859 69.9297 3.54532C68.1332 2.58451 66.3718 2 61.437 2Z" fill="#7AC70C" stroke="white" stroke-width="4"/>
<path d="M16.563 4H39V31C39 33.2091 37.2091 35 35 35H4V16.563C4 12.1946 4.45485 10.6105 5.30895 9.01346C6.16305 7.41642 7.41642 6.16305 9.01346 5.30895C10.6105 4.45485 12.1946 4 16.563 4Z" fill="#EEEEEE"/>
<path d="M20.5949 26.7129L17.1775 28.5095C16.1362 29.057 14.8481 28.6566 14.3007 27.6152C14.0826 27.2005 14.0074 26.7255 14.0866 26.2638L14.7393 22.4586C14.7875 22.1774 14.6943 21.8905 14.49 21.6914L11.7254 18.9966C10.8829 18.1753 10.8656 16.8266 11.6868 15.9841C12.0139 15.6486 12.4424 15.4303 12.906 15.363L16.7267 14.8078C17.0089 14.7668 17.253 14.5895 17.3792 14.3337L19.0879 10.8716C19.6085 9.81653 20.8859 9.38336 21.9409 9.90405C22.3611 10.1114 22.7011 10.4514 22.9085 10.8716L24.6171 14.3337C24.7434 14.5895 24.9874 14.7668 25.2697 14.8078L29.0903 15.363C30.2546 15.5321 31.0613 16.6131 30.8921 17.7774C30.8248 18.2411 30.6064 18.6695 30.271 18.9966L27.5063 21.6914C27.302 21.8905 27.2088 22.1774 27.257 22.4586L27.9097 26.2638C28.1086 27.4234 27.3298 28.5246 26.1702 28.7235C25.7084 28.8027 25.2334 28.7275 24.8188 28.5095L21.4014 26.7129C21.149 26.5802 20.8473 26.5802 20.5949 26.7129Z" fill="#7AC70C"/>
</svg>
