<svg width="100%" height="100%" viewBox="0 0 78 62" fill="none" xmlns="http://www.w3.org/2000/svg">
<path fill-rule="evenodd" clip-rule="evenodd" d="M61.437 2H16.563C11.6282 2 9.86682 2.58451 8.07026 3.54532C6.11953 4.58859 4.58859 6.11953 3.54532 8.07026C2.58451 9.86682 2 11.6282 2 16.563V45.437C2 50.3718 2.58451 52.1332 3.54532 53.9297C4.58859 55.8805 6.11953 57.4114 8.07026 58.4547C9.86682 59.4155 11.6282 60 16.563 60H61.437C66.3718 60 68.1332 59.4155 69.9297 58.4547C71.8805 57.4114 73.4114 55.8805 74.4547 53.9297C75.4155 52.1332 76 50.3718 76 45.437V16.563C76 11.6282 75.4155 9.86682 74.4547 8.07026C73.4114 6.11953 71.8805 4.58859 69.9297 3.54532C68.1332 2.58451 66.3718 2 61.437 2Z" fill="#FF4B4B" stroke="white" stroke-width="4"/>
<path fill-rule="evenodd" clip-rule="evenodd" d="M4 19.4297H74V42.5725H4V19.4297Z" fill="#FFC800"/>
<path fill-rule="evenodd" clip-rule="evenodd" d="M31.2218 25.2148C32.2957 25.2148 33.1662 26.0854 33.1662 27.1593V34.8418C33.1662 35.9157 32.2957 36.7863 31.2218 36.7863C30.1479 36.7863 29.2773 35.9157 29.2773 34.8418V27.1593C29.2773 26.0854 30.1479 25.2148 31.2218 25.2148Z" fill="white"/>
<path fill-rule="evenodd" clip-rule="evenodd" d="M11.7765 25.2148C12.8504 25.2148 13.7209 26.0854 13.7209 27.1593V34.8418C13.7209 35.9157 12.8504 36.7863 11.7765 36.7863C10.7026 36.7863 9.83203 35.9157 9.83203 34.8418V27.1593C9.83203 26.0854 10.7026 25.2148 11.7765 25.2148Z" fill="white"/>
<path fill-rule="evenodd" clip-rule="evenodd" d="M17.418 23.2852H25.5846C26.5511 23.2852 27.3346 24.0687 27.3346 25.0352V32.8804C27.3346 36.1021 24.723 38.7137 21.5013 38.7137C18.2796 38.7137 15.668 36.1021 15.668 32.8804V25.0352C15.668 24.0687 16.4515 23.2852 17.418 23.2852Z" fill="#FF4B4B"/>
</svg>
