<svg width="100%" height="100%" viewBox="0 0 78 62" fill="none" xmlns="http://www.w3.org/2000/svg">
<path d="M61.437 2H16.563C11.6282 2 9.86682 2.58451 8.07026 3.54532C6.11953 4.58859 4.58859 6.11953 3.54532 8.07026C2.58451 9.86682 2 11.6282 2 16.563V45.437C2 50.3718 2.58451 52.1332 3.54532 53.9297C4.58859 55.8805 6.11953 57.4114 8.07026 58.4547C9.86682 59.4155 11.6282 60 16.563 60H61.437C66.3718 60 68.1332 59.4155 69.9297 58.4547C71.8805 57.4114 73.4114 55.8805 74.4547 53.9297C75.4155 52.1332 76 50.3718 76 45.437V16.563C76 11.6282 75.4155 9.86682 74.4547 8.07026C73.4114 6.11953 71.8805 4.58859 69.9297 3.54532C68.1332 2.58451 66.3718 2 61.437 2Z" fill="#EEEEEE" stroke="white" stroke-width="4"/>
<path d="M73.9986 46C73.9603 49.9454 73.5087 51.4601 72.6923 52.9865C72.5024 53.3415 72.2929 53.6796 72.0641 54H5.93835C5.70964 53.6796 5.50006 53.3415 5.3102 52.9865C4.49383 51.4601 4.04222 49.9454 4.00391 46H73.9986Z" fill="#1CB0F6"/>
<path d="M72.0641 8C72.2929 8.32043 72.5024 8.65845 72.6923 9.01346C73.5087 10.5399 73.9603 12.0546 73.9986 16H4.00391C4.04222 12.0546 4.49383 10.5399 5.3102 9.01346C5.50006 8.65845 5.70964 8.32043 5.93835 8H72.0641Z" fill="#1CB0F6"/>
<path d="M39.5299 21.0145C39.5272 21.0102 39.5235 21.0065 39.5192 21.0038C39.5035 20.9941 39.483 20.9988 39.4733 21.0145L30.2847 35.8024C30.2814 35.8076 30.2797 35.8137 30.2797 35.82C30.2797 35.8384 30.2946 35.8533 30.313 35.8533H48.6901C48.6963 35.8533 48.7024 35.8515 48.7077 35.8483C48.7235 35.8386 48.7282 35.818 48.7184 35.8024L39.5299 21.0145ZM41.7383 19.6423L50.9268 34.4302C51.6944 35.6655 51.3152 37.2891 50.0799 38.0567C49.6627 38.3159 49.1813 38.4533 48.6901 38.4533H30.313C28.8587 38.4533 27.6797 37.2743 27.6797 35.82C27.6797 35.3288 27.8171 34.8474 28.0763 34.4302L37.2649 19.6423C38.0324 18.407 39.6561 18.0278 40.8914 18.7954C41.235 19.0089 41.5248 19.2987 41.7383 19.6423Z" fill="#1CB0F6"/>
<path d="M39.4736 40.6848C39.4763 40.6892 39.48 40.6929 39.4843 40.6956C39.5 40.7053 39.5205 40.7006 39.5302 40.6848L48.7188 25.897C48.7221 25.8917 48.7238 25.8856 48.7238 25.8794C48.7238 25.861 48.7089 25.8461 48.6905 25.8461H30.3134C30.3072 25.8461 30.3011 25.8478 30.2958 25.8511C30.28 25.8608 30.2754 25.8814 30.2851 25.897L39.4736 40.6848ZM37.2652 42.0571L28.0767 27.2692C27.3091 26.0339 27.6883 24.4103 28.9236 23.6427C29.3408 23.3835 29.8222 23.2461 30.3134 23.2461H48.6905C50.1448 23.2461 51.3238 24.4251 51.3238 25.8794C51.3238 26.3706 51.1864 26.852 50.9272 27.2692L41.7386 42.0571C40.9711 43.2924 39.3474 43.6715 38.1121 42.904C37.7685 42.6905 37.4787 42.4007 37.2652 42.0571Z" fill="#1CB0F6"/>
</svg>
