<svg width="100%" height="100%" viewBox="0 0 78 62" fill="none" xmlns="http://www.w3.org/2000/svg">
<path d="M61.437 2H16.563C11.6282 2 9.86682 2.58451 8.07026 3.54532C6.11953 4.58859 4.58859 6.11953 3.54532 8.07026C2.58451 9.86682 2 11.6282 2 16.563V45.437C2 50.3718 2.58451 52.1332 3.54532 53.9297C4.58859 55.8805 6.11953 57.4114 8.07026 58.4547C9.86682 59.4155 11.6282 60 16.563 60H61.437C66.3718 60 68.1332 59.4155 69.9297 58.4547C71.8805 57.4114 73.4114 55.8805 74.4547 53.9297C75.4155 52.1332 76 50.3718 76 45.437V16.563C76 11.6282 75.4155 9.86682 74.4547 8.07026C73.4114 6.11953 71.8805 4.58859 69.9297 3.54532C68.1332 2.58451 66.3718 2 61.437 2Z" fill="#4B4B4B" stroke="white" stroke-width="4"/>
<path d="M39.1004 13.9799L44.7591 11.1925C45.4028 10.8755 46.1405 11.4022 46.0496 12.114L45.6809 14.9997H50.9995C60.9407 14.9997 68.9995 23.0586 68.9995 32.9997C68.9995 42.9408 60.9407 50.9997 50.9995 50.9997H44.4757C42.5595 50.9997 40.9995 52.5632 40.9995 54.4997C40.9995 56.4363 42.5595 57.9997 44.4757 57.9997H53.9995H27.3492C27.1199 56.8688 26.9995 55.6983 26.9995 54.4997C26.9995 44.8383 34.8203 36.9997 44.4757 36.9997H50.9995C53.2087 36.9997 54.9995 35.2089 54.9995 32.9997C54.9995 30.7906 53.2087 28.9997 50.9995 28.9997H42.264L42.8234 31.0907C42.9722 31.6468 42.5678 32.1977 41.9926 32.2225L34.8665 32.5285L36.173 34.4901C36.5586 35.069 36.1697 35.8479 35.4752 35.8875L24.9228 36.4904C23.5306 36.5699 22.193 36.251 21.0337 35.6231L18.2638 37.0448C17.8095 37.2779 17.2525 37.0869 17.037 36.6239C14.6783 31.5578 16.2713 25.53 20.8249 22.2906L37.5969 10.3595C38.1833 9.9423 38.9979 10.3481 39.0182 11.0675L39.1004 13.9799Z" fill="#FF4B4B"/>
<path d="M17.4816 42.8203L12.2855 45.8203C11.8072 46.0965 11.1956 45.9326 10.9195 45.4543C9.81488 43.5411 10.4704 41.0948 12.3836 39.9902C14.2967 38.8856 16.7431 39.5411 17.8477 41.4543C18.1238 41.9326 17.9599 42.5442 17.4816 42.8203Z" fill="#FF9600"/>
<path d="M14.4871 41.9766L20.5493 38.4766C21.0276 38.2004 21.6392 38.3643 21.9153 38.8426C23.0199 40.7558 22.3644 43.2021 20.4512 44.3067L19.5852 44.8067C17.672 45.9113 15.2257 45.2558 14.1211 43.3426C13.845 42.8643 14.0088 42.2527 14.4871 41.9766Z" fill="#FFC300"/>
<path d="M11.4988 49.1328L14.9629 47.1328C15.4412 46.8567 16.0528 47.0205 16.329 47.4988C17.1574 48.9337 16.6658 50.7685 15.2309 51.5969C13.796 52.4253 11.9612 51.9337 11.1328 50.4988C10.8567 50.0205 11.0205 49.409 11.4988 49.1328Z" fill="#FFC300"/>
<path d="M23.9279 25.8163L27.7463 21.992C28.0979 21.6398 28.6685 21.6398 29.0201 21.992C30.0742 23.0477 30.0742 24.7576 29.0201 25.8133L27.7473 27.0881C26.6943 28.1428 24.9856 28.1441 23.9309 27.0911L23.9279 27.0881C23.5771 26.7367 23.5771 26.1677 23.9279 25.8163Z" fill="#FFC300"/>
</svg>
