<svg width="100%" height="100%" viewBox="0 0 78 62" fill="none" xmlns="http://www.w3.org/2000/svg">
<path fill-rule="evenodd" clip-rule="evenodd" d="M61.437 2H16.563C11.6282 2 9.86682 2.58451 8.07026 3.54532C6.11953 4.58859 4.58859 6.11953 3.54532 8.07026C2.58451 9.86682 2 11.6282 2 16.563V45.437C2 50.3718 2.58451 52.1332 3.54532 53.9297C4.58859 55.8805 6.11953 57.4114 8.07026 58.4547C9.86682 59.4155 11.6282 60 16.563 60H61.437C66.3718 60 68.1332 59.4155 69.9297 58.4547C71.8805 57.4114 73.4114 55.8805 74.4547 53.9297C75.4155 52.1332 76 50.3718 76 45.437V16.563C76 11.6282 75.4155 9.86682 74.4547 8.07026C73.4114 6.11953 71.8805 4.58859 69.9297 3.54532C68.1332 2.58451 66.3718 2 61.437 2Z" fill="#EEEEEE" stroke="white" stroke-width="4"/>
<path d="M39 44C46.1797 44 52 38.1797 52 31C52 23.8203 46.1797 18 39 18C31.8203 18 26 23.8203 26 31C26 38.1797 31.8203 44 39 44Z" fill="#FF4B4B"/>
<path d="M26.0078 31.502C28.2316 33.8234 30.4216 34.9841 32.5779 34.9841C34.7372 34.9841 36.8868 33.8201 39.0267 31.4921C40.9833 29.164 43.0905 28 45.3483 28C47.5249 28 49.7409 29.0819 51.996 31.2457C51.8651 38.312 46.0959 44 38.9983 44C31.9867 44 26.2716 38.4491 26.0078 31.502Z" fill="#1CB0F6"/>
<path d="M21.0541 51.6364L12.2605 42.8627C11.7473 42.3507 11.7464 41.5197 12.2584 41.0066C12.7704 40.4934 13.6014 40.4925 14.1145 41.0045L22.9082 49.7782C23.4213 50.2901 23.4223 51.1212 22.9103 51.6343C22.3983 52.1475 21.5673 52.1484 21.0541 51.6364Z" fill="#4C4C4C"/>
<path d="M60.5075 24.4423L57.3213 21.2517C56.8091 20.7387 56.8096 19.9077 57.3226 19.3955C57.8355 18.8833 58.6665 18.8839 59.1787 19.3968L62.3649 22.5874C62.8772 23.1003 62.8766 23.9313 62.3637 24.4435C61.8508 24.9557 61.0197 24.9552 60.5075 24.4423Z" fill="#4C4C4C"/>
<path d="M13.2395 21.0817C12.7264 21.5937 11.8954 21.5928 11.3834 21.0796C10.8714 20.5665 10.8723 19.7355 11.3855 19.2235L20.1791 10.4498C20.6923 9.93779 21.5233 9.93874 22.0353 10.4519C22.5473 10.965 22.5463 11.7961 22.0332 12.308L13.2395 21.0817Z" fill="#4C4C4C"/>
<path d="M54.6918 18.6389L51.7175 15.6713C51.2044 15.1593 51.2034 14.3283 51.7154 13.8152C52.2274 13.302 53.0584 13.3011 53.5716 13.8131L56.5459 16.7806C57.059 17.2926 57.06 18.1237 56.548 18.6368C56.036 19.1499 55.205 19.1509 54.6918 18.6389Z" fill="#4C4C4C"/>
<path d="M18.6918 42.3381L15.7175 39.3705C15.2044 38.8586 15.2034 38.0275 15.7154 37.5144C16.2274 37.0012 17.0584 37.0003 17.5716 37.5123L20.5459 40.4799C21.059 40.9918 21.06 41.8229 20.548 42.336C20.036 42.8492 19.205 42.8501 18.6918 42.3381Z" fill="#4C4C4C"/>
<path d="M53.4895 48.1442C52.9764 48.6562 52.1454 48.6553 51.6334 48.1421C51.1214 47.629 51.1223 46.798 51.6355 46.286L60.4291 37.5123C60.9423 37.0003 61.7733 37.0012 62.2853 37.5144C62.7973 38.0275 62.7963 38.8586 62.2832 39.3705L53.4895 48.1442Z" fill="#4C4C4C"/>
<path d="M64.0075 20.9501L60.8213 17.7595C60.3091 17.2466 60.3096 16.4155 60.8226 15.9033C61.3355 15.3911 62.1665 15.3917 62.6787 15.9046L65.8649 19.0952C66.3772 19.6081 66.3766 20.4391 65.8637 20.9513C65.3508 21.4636 64.5197 21.463 64.0075 20.9501Z" fill="#4C4C4C"/>
<path d="M16.7395 24.5739C16.2264 25.0859 15.3954 25.085 14.8834 24.5718C14.3714 24.0587 14.3723 23.2276 14.8855 22.7157L23.6791 13.942C24.1923 13.43 25.0233 13.4309 25.5353 13.9441C26.0473 14.4572 26.0463 15.2882 25.5332 15.8002L16.7395 24.5739Z" fill="#4C4C4C"/>
<path d="M56.9895 51.6364C56.4764 52.1484 55.6454 52.1475 55.1334 51.6343C54.6214 51.1212 54.6223 50.2901 55.1355 49.7782L63.9291 41.0045C64.4423 40.4925 65.2733 40.4934 65.7853 41.0066C66.2973 41.5197 66.2963 42.3507 65.7832 42.8627L56.9895 51.6364Z" fill="#4C4C4C"/>
<path d="M58.1918 15.1467L55.2175 12.1791C54.7044 11.6671 54.7034 10.8361 55.2154 10.323C55.7274 9.80983 56.5584 9.80889 57.0716 10.3209L60.0459 13.2885C60.559 13.8004 60.56 14.6315 60.048 15.1446C59.536 15.6578 58.705 15.6587 58.1918 15.1467Z" fill="#4C4C4C"/>
<path d="M24.5075 48.1415L21.3213 44.9509C20.8091 44.438 20.8096 43.6069 21.3226 43.0947C21.8355 42.5825 22.6665 42.5831 23.1787 43.096L26.3649 46.2866C26.8772 46.7995 26.8766 47.6305 26.3637 48.1428C25.8508 48.655 25.0197 48.6544 24.5075 48.1415Z" fill="#4C4C4C"/>
</svg>
