<svg width="100%" height="100%" viewBox="0 0 78 62" fill="none" xmlns="http://www.w3.org/2000/svg">
<path d="M61.437 2H16.563C11.6282 2 9.86682 2.58451 8.07026 3.54532C6.11953 4.58859 4.58859 6.11953 3.54532 8.07026C2.58451 9.86682 2 11.6282 2 16.563V45.437C2 50.3718 2.58451 52.1332 3.54532 53.9297C4.58859 55.8805 6.11953 57.4114 8.07026 58.4547C9.86682 59.4155 11.6282 60 16.563 60H61.437C66.3718 60 68.1332 59.4155 69.9297 58.4547C71.8805 57.4114 73.4114 55.8805 74.4547 53.9297C75.4155 52.1332 76 50.3718 76 45.437V16.563C76 11.6282 75.4155 9.86682 74.4547 8.07026C73.4114 6.11953 71.8805 4.58859 69.9297 3.54532C68.1332 2.58451 66.3718 2 61.437 2Z" fill="#EEEEEE" stroke="white" stroke-width="4"/>
<path d="M74 31V45.437C74 49.8054 73.5452 51.3895 72.691 52.9865C71.8369 54.5836 70.5836 55.8369 68.9865 56.6911C67.3895 57.5452 65.8054 58 61.437 58H16.563C12.1946 58 10.6105 57.5452 9.01346 56.6911C7.41642 55.8369 6.16305 54.5836 5.30895 52.9865C4.45485 51.3895 4 49.8054 4 45.437V31H74Z" fill="#FF4B4B"/>
</svg>
