<svg width="100%" height="100%" viewBox="0 0 78 62" fill="none" xmlns="http://www.w3.org/2000/svg">
<path d="M61.437 2H16.563C11.6282 2 9.86682 2.58451 8.07026 3.54532C6.11953 4.58859 4.58859 6.11953 3.54532 8.07026C2.58451 9.86682 2 11.6282 2 16.563V45.437C2 50.3718 2.58451 52.1332 3.54532 53.9297C4.58859 55.8805 6.11953 57.4114 8.07026 58.4547C9.86682 59.4155 11.6282 60 16.563 60H61.437C66.3718 60 68.1332 59.4155 69.9297 58.4547C71.8805 57.4114 73.4114 55.8805 74.4547 53.9297C75.4155 52.1332 76 50.3718 76 45.437V16.563C76 11.6282 75.4155 9.86682 74.4547 8.07026C73.4114 6.11953 71.8805 4.58859 69.9297 3.54532C68.1332 2.58451 66.3718 2 61.437 2Z" fill="#1CB0F6" stroke="white" stroke-width="4"/>
<path d="M69.4383 5.56673L4.51382 51.0273C4.17572 49.7918 4 48.1522 4 45.437V16.563C4 12.1946 4.45485 10.6105 5.30895 9.01346C6.16305 7.41642 7.41642 6.16305 9.01346 5.30895C10.6105 4.45485 12.1946 4 16.563 4H61.437C65.8054 4 67.3895 4.45485 68.9865 5.30895C69.1403 5.39119 69.2909 5.47714 69.4383 5.56673Z" fill="#7AC70C"/>
<path d="M60.1929 4H61.437C65.8054 4 67.3895 4.45485 68.9865 5.30895C70.5836 6.16305 71.8369 7.41642 72.691 9.01346C73.5452 10.6105 74 12.1946 74 16.563V19.0833L18.4212 58H16.563C12.1946 58 10.6105 57.5452 9.01346 56.6911C7.41642 55.8369 6.16305 54.5836 5.30895 52.9865C4.45485 51.3895 4 49.8054 4 45.437V43.3467L60.1929 4Z" fill="#FFC300"/>
<path d="M66.5037 4.38672C67.5123 4.60541 68.2476 4.91485 68.9856 5.30955C70.5826 6.16366 71.836 7.41702 72.6901 9.01406C73.3658 10.2774 73.7916 11.5327 73.94 14.1647L11.7992 57.6762C10.63 57.4557 9.82291 57.1251 9.01251 56.6917C7.41548 55.8376 6.16211 54.5842 5.30801 52.9871C4.65533 51.7667 4.2358 50.5539 4.07422 48.1003L66.5037 4.38672Z" fill="#4B4B4B"/>
</svg>
