<svg width="100%" height="100%" viewBox="0 0 78 62" fill="none" xmlns="http://www.w3.org/2000/svg">
<path fill-rule="evenodd" clip-rule="evenodd" d="M61.437 2H16.563C11.6282 2 9.86682 2.58451 8.07026 3.54532C6.11953 4.58859 4.58859 6.11953 3.54532 8.07026C2.58451 9.86682 2 11.6282 2 16.563V45.2453C2 50.1802 2.58451 51.9415 3.54532 53.7381C4.58859 55.6888 6.11953 57.2198 8.07026 58.263C9.86682 59.2239 11.6282 59.8084 16.563 59.8084H61.437C66.3718 59.8084 68.1332 59.2239 69.9297 58.263C71.8805 57.2198 73.4114 55.6888 74.4547 53.7381C75.4155 51.9415 76 50.1802 76 45.2453V16.563C76 11.6282 75.4155 9.86682 74.4547 8.07026C73.4114 6.11953 71.8805 4.58859 69.9297 3.54532C68.1332 2.58451 66.3718 2 61.437 2Z" fill="#FF4B4B" stroke="white" stroke-width="4"/>
<path d="M46.3119 19.3341C45.4374 19.1114 44.6667 19 44 19C37.3726 19 32 24.3726 32 31C32 37.6274 37.3726 43 44 43C44.6667 43 45.4373 42.8886 46.3118 42.6659C46.8471 42.5296 47.3914 42.8529 47.5278 43.3881C47.6302 43.7903 47.4736 44.214 47.1341 44.4528C44.7209 46.1509 41.6762 47 38 47C29.1634 47 22 39.8366 22 31C22 22.1634 29.1634 15 38 15C41.6762 15 44.7209 15.8491 47.1342 17.5472C47.5859 17.8651 47.6944 18.4889 47.3766 18.9405C47.1377 19.2799 46.7141 19.4366 46.3119 19.3341Z" fill="white"/>
<path d="M51.7628 35.897L50.0785 37.4645C49.5152 37.9888 48.6335 37.9571 48.1092 37.3937C47.8997 37.1686 47.7706 36.8806 47.7419 36.5744L47.5229 34.2373C47.4924 33.9117 47.3046 33.6216 47.02 33.4604L44.9944 32.3133C44.3192 31.931 44.0818 31.0737 44.4642 30.3986C44.6151 30.1321 44.8489 29.9222 45.1301 29.8009L47.241 28.89C47.544 28.7593 47.7629 28.4876 47.8262 28.1638L48.2713 25.888C48.4189 25.1335 49.1503 24.6414 49.9048 24.789C50.2086 24.8484 50.4839 25.0073 50.6873 25.2407L52.2106 26.989C52.4273 27.2378 52.7528 27.3636 53.0805 27.3253L55.3641 27.0587C56.1348 26.9687 56.8325 27.5205 56.9225 28.2912C56.958 28.5954 56.8932 28.9028 56.7378 29.1667L55.5571 31.1729C55.3912 31.4548 55.3737 31.7999 55.51 32.0972L56.489 34.2306C56.8099 34.9301 56.5031 35.7573 55.8036 36.0782C55.5241 36.2065 55.2101 36.2386 54.9104 36.1698L52.668 35.6545C52.3447 35.5802 52.0056 35.671 51.7628 35.897Z" fill="white"/>
</svg>
