<svg width="100%" height="100%" viewBox="0 0 78 62" fill="none" xmlns="http://www.w3.org/2000/svg">
<path d="M61.437 2H16.563C11.6282 2 9.86682 2.58451 8.07026 3.54532C6.11953 4.58859 4.58859 6.11953 3.54532 8.07026C2.58451 9.86682 2 11.6282 2 16.563V45.437C2 50.3718 2.58451 52.1332 3.54532 53.9297C4.58859 55.8805 6.11953 57.4114 8.07026 58.4547C9.86682 59.4155 11.6282 60 16.563 60H61.437C66.3718 60 68.1332 59.4155 69.9297 58.4547C71.8805 57.4114 73.4114 55.8805 74.4547 53.9297C75.4155 52.1332 76 50.3718 76 45.437V16.563C76 11.6282 75.4155 9.86682 74.4547 8.07026C73.4114 6.11953 71.8805 4.58859 69.9297 3.54532C68.1332 2.58451 66.3718 2 61.437 2Z" fill="#FF4B4B" stroke="white" stroke-width="4"/>
<path d="M38.5349 38.7429L34.5919 40.8159C33.3903 41.4476 31.9041 40.9857 31.2724 39.7841C31.0208 39.3056 30.934 38.7575 31.0254 38.2247L31.7785 33.8341C31.8341 33.5097 31.7266 33.1787 31.4909 32.949L28.3009 29.8395C27.3288 28.8919 27.3089 27.3357 28.2565 26.3636C28.6338 25.9765 29.1282 25.7246 29.6632 25.6469L34.0716 25.0063C34.3973 24.9589 34.6789 24.7544 34.8246 24.4592L36.7961 20.4645C37.3969 19.2471 38.8708 18.7473 40.0881 19.3481C40.5729 19.5874 40.9652 19.9797 41.2045 20.4645L43.176 24.4592C43.3217 24.7544 43.6032 24.9589 43.9289 25.0063L48.3374 25.6469C49.6808 25.8421 50.6116 27.0894 50.4164 28.4328C50.3387 28.9677 50.0868 29.4622 49.6997 29.8395L46.5097 32.949C46.274 33.1787 46.1664 33.5097 46.2221 33.8341L46.9751 38.2247C47.2046 39.5627 46.306 40.8334 44.968 41.0629C44.4352 41.1543 43.8871 41.0675 43.4087 40.8159L39.4656 38.7429C39.1743 38.5898 38.8263 38.5898 38.5349 38.7429Z" fill="#FFC300"/>
</svg>
