<svg width="100%" height="100%" viewBox="0 0 78 62" fill="none" xmlns="http://www.w3.org/2000/svg">
<path fill-rule="evenodd" clip-rule="evenodd" d="M61.437 2H16.563C11.6282 2 9.86682 2.58451 8.07026 3.54532C6.11953 4.58859 4.58859 6.11953 3.54532 8.07026C2.58451 9.86682 2 11.6282 2 16.563V45.437C2 50.3718 2.58451 52.1332 3.54532 53.9297C4.58859 55.8805 6.11953 57.4114 8.07026 58.4547C9.86682 59.4155 11.6282 60 16.563 60H61.437C66.3718 60 68.1332 59.4155 69.9297 58.4547C71.8805 57.4114 73.4114 55.8805 74.4547 53.9297C75.4155 52.1332 76 50.3718 76 45.437V16.563C76 11.6282 75.4155 9.86682 74.4547 8.07026C73.4114 6.11953 71.8805 4.58859 69.9297 3.54532C68.1332 2.58451 66.3718 2 61.437 2Z" fill="#FF4B4B" stroke="white" stroke-width="4"/>
<path d="M29.5851 14.972L28.3031 15.1689C27.9006 15.2307 27.5241 14.9545 27.4623 14.552C27.4377 14.3917 27.4666 14.2277 27.5445 14.0855L28.168 12.9482C28.2274 12.84 28.2296 12.7095 28.1741 12.5993L27.5907 11.4409C27.4075 11.0772 27.5539 10.6338 27.9176 10.4506C28.0624 10.3777 28.2273 10.3545 28.3866 10.3847L29.6609 10.6262C29.7822 10.6492 29.907 10.611 29.9947 10.5242L30.9161 9.61136C31.2054 9.32473 31.6723 9.32691 31.9589 9.61623C32.073 9.73144 32.146 9.88106 32.1665 10.0419L32.3306 11.3285C32.3462 11.4509 32.4211 11.5578 32.5308 11.6144L33.6837 12.2086C34.0457 12.3952 34.1879 12.8399 34.0013 13.2019C33.927 13.3461 33.8072 13.4617 33.6606 13.5309L32.4877 14.0845C32.3761 14.1372 32.2975 14.2415 32.2776 14.3633L32.0688 15.6433C32.0032 16.0453 31.6242 16.318 31.2222 16.2524C31.0622 16.2263 30.9152 16.1481 30.804 16.03L29.9151 15.0856C29.8305 14.9957 29.7071 14.9532 29.5851 14.972Z" fill="#FFC300"/>
<path d="M38.6814 21.6865L37.7924 22.6309C37.5133 22.9275 37.0466 22.9416 36.7501 22.6624C36.632 22.5513 36.5538 22.4043 36.5277 22.2443L36.3188 20.9642C36.2989 20.8424 36.2204 20.7381 36.1088 20.6855L34.9359 20.1318C34.5676 19.958 34.4099 19.5185 34.5838 19.1502C34.653 19.0036 34.7686 18.8838 34.9128 18.8095L36.0657 18.2153C36.1754 18.1588 36.2502 18.0518 36.2658 17.9294L36.4299 16.6428C36.4814 16.2389 36.8507 15.9531 37.2547 16.0046C37.4156 16.0252 37.5652 16.0981 37.6804 16.2123L38.6018 17.1251C38.6895 17.212 38.8143 17.2501 38.9355 17.2271L40.2098 16.9856C40.61 16.9098 40.9958 17.1727 41.0717 17.5728C41.1019 17.7321 41.0787 17.897 41.0058 18.0418L40.4223 19.2002C40.3668 19.3104 40.3691 19.4409 40.4284 19.5491L41.0519 20.6864C41.2477 21.0436 41.1169 21.4918 40.7598 21.6875C40.6176 21.7655 40.4536 21.7944 40.2934 21.7698L39.0114 21.5729C38.8894 21.5541 38.766 21.5966 38.6814 21.6865Z" fill="#FFC300"/>
<path d="M29.5851 37.6517L28.3031 37.8486C27.9006 37.9104 27.5241 37.6342 27.4623 37.2317C27.4377 37.0714 27.4666 36.9074 27.5445 36.7652L28.168 35.6279C28.2274 35.5197 28.2296 35.3892 28.1741 35.279L27.5907 34.1206C27.4075 33.7569 27.5539 33.3135 27.9176 33.1303C28.0624 33.0573 28.2273 33.0342 28.3866 33.0644L29.6609 33.3059C29.7822 33.3289 29.907 33.2907 29.9947 33.2039L30.9161 32.291C31.2054 32.0044 31.6723 32.0066 31.9589 32.2959C32.073 32.4111 32.146 32.5607 32.1665 32.7216L32.3306 34.0082C32.3462 34.1306 32.4211 34.2375 32.5308 34.2941L33.6837 34.8883C34.0457 35.0749 34.1879 35.5196 34.0013 35.8816C33.927 36.0258 33.8072 36.1414 33.6606 36.2106L32.4877 36.7642C32.3761 36.8169 32.2975 36.9212 32.2776 37.043L32.0688 38.323C32.0032 38.725 31.6242 38.9976 31.2222 38.9321C31.0622 38.9059 30.9152 38.8278 30.804 38.7097L29.9151 37.7653C29.8305 37.6754 29.7071 37.6329 29.5851 37.6517Z" fill="#FFC300"/>
<path d="M37.8244 31.374L36.6764 31.9776C36.3159 32.1671 35.8701 32.0285 35.6805 31.668C35.6051 31.5245 35.579 31.3601 35.6065 31.2002L35.8257 29.9219C35.8466 29.8003 35.8062 29.6761 35.7179 29.59L34.7891 28.6847C34.4975 28.4004 34.4915 27.9335 34.7758 27.6419C34.889 27.5258 35.0373 27.4502 35.1978 27.4269L36.4813 27.2404C36.6034 27.2226 36.709 27.1459 36.7636 27.0352L37.3377 25.8722C37.5179 25.507 37.9601 25.357 38.3253 25.5372C38.4707 25.609 38.5884 25.7267 38.6602 25.8722L39.2342 27.0352C39.2888 27.1459 39.3944 27.2226 39.5165 27.2404L40.8 27.4269C41.2031 27.4854 41.4823 27.8596 41.4238 28.2626C41.4004 28.4231 41.3249 28.5715 41.2087 28.6847L40.28 29.59C40.1916 29.6761 40.1513 29.8003 40.1721 29.9219L40.3914 31.2002C40.4602 31.6016 40.1906 31.9828 39.7892 32.0517C39.6294 32.0791 39.465 32.0531 39.3214 31.9776L38.1734 31.374C38.0642 31.3166 37.9337 31.3166 37.8244 31.374Z" fill="#FFC300"/>
<path d="M19.6111 29.2027L17.06 30.544C16.2589 30.9651 15.2681 30.6571 14.847 29.856C14.6793 29.5371 14.6214 29.1717 14.6823 28.8165L15.1695 25.9758C15.2159 25.7054 15.1263 25.4296 14.9299 25.2381L12.866 23.2263C12.2179 22.5946 12.2046 21.5571 12.8363 20.9091C13.0879 20.651 13.4175 20.4831 13.7741 20.4312L16.6264 20.0168C16.8978 19.9773 17.1325 19.8069 17.2538 19.5609L18.5294 16.9763C18.9299 16.1648 19.9125 15.8316 20.7241 16.2321C21.0473 16.3916 21.3089 16.6532 21.4683 16.9763L22.7439 19.5609C22.8653 19.8069 23.0999 19.9773 23.3714 20.0168L26.2236 20.4312C27.1192 20.5614 27.7398 21.3929 27.6096 22.2885C27.5578 22.6452 27.3899 22.9748 27.1318 23.2263L25.0679 25.2381C24.8715 25.4296 24.7819 25.7054 24.8282 25.9758L25.3154 28.8165C25.4684 29.7085 24.8694 30.5556 23.9774 30.7086C23.6222 30.7695 23.2568 30.7117 22.9378 30.544L20.3867 29.2027C20.1439 29.0751 19.8539 29.0751 19.6111 29.2027Z" fill="#FFC300"/>
</svg>
