<svg width="69" height="69" viewBox="0 0 69 69" fill="none" xmlns="http://www.w3.org/2000/svg">
<rect y="0.899048" width="68.1018" height="68.1018" rx="34.0509" fill="#FFD15A"/>
<path d="M56.157 31.3797L53.9135 40.949C51.9905 49.2133 48.1902 52.5557 41.0477 51.8689C39.903 51.7773 38.6668 51.5713 37.339 51.2508L33.493 50.3351C23.9466 48.0687 20.9934 43.3527 23.2369 33.7835L25.4804 24.1913C25.9383 22.2454 26.4877 20.5514 27.1745 19.1549C29.853 13.6148 34.4087 12.1268 42.0549 13.9353L45.8781 14.8281C55.4702 17.0716 58.4005 21.8105 56.157 31.3797Z" stroke="#0E1428" stroke-width="2.57546" stroke-linecap="round" stroke-linejoin="round"/>
<path d="M41.0455 51.8673C39.6261 52.8288 37.8405 53.6301 35.6657 54.3398L32.0486 55.5302C22.9601 58.4605 18.1754 56.011 15.2223 46.9225L12.292 37.8797C9.36166 28.7912 11.7883 23.9837 20.8768 21.0534L24.4939 19.863C25.4325 19.5654 26.3253 19.3136 27.1724 19.1533C26.4856 20.5498 25.9362 22.2439 25.4783 24.1898L23.2348 33.7819C20.9913 43.3512 23.9445 48.0671 33.4908 50.3335L37.3368 51.2492C38.6646 51.5697 39.9009 51.7758 41.0455 51.8673Z" stroke="#0E1428" stroke-width="2.57546" stroke-linecap="round" stroke-linejoin="round"/>
</svg>
