<svg width="339" height="69" viewBox="0 0 339 69" fill="none" xmlns="http://www.w3.org/2000/svg">
<rect y="0.899048" width="68.1018" height="68.1018" rx="34.0509" fill="#FFD15A"/>
<path d="M56.157 31.3797L53.9135 40.949C51.9905 49.2133 48.1902 52.5557 41.0477 51.8689C39.903 51.7773 38.6668 51.5713 37.339 51.2508L33.493 50.3351C23.9466 48.0687 20.9934 43.3527 23.2369 33.7835L25.4804 24.1913C25.9383 22.2454 26.4877 20.5514 27.1745 19.1549C29.853 13.6148 34.4087 12.1268 42.0549 13.9353L45.8781 14.8281C55.4702 17.0716 58.4005 21.8105 56.157 31.3797Z" stroke="#0E1428" stroke-width="2.57546" stroke-linecap="round" stroke-linejoin="round"/>
<path d="M41.0455 51.8673C39.6261 52.8288 37.8405 53.6301 35.6657 54.3398L32.0486 55.5302C22.9601 58.4605 18.1754 56.011 15.2223 46.9225L12.292 37.8797C9.36166 28.7912 11.7883 23.9837 20.8768 21.0534L24.4939 19.863C25.4325 19.5654 26.3253 19.3136 27.1724 19.1533C26.4856 20.5498 25.9362 22.2439 25.4783 24.1898L23.2348 33.7819C20.9913 43.3512 23.9445 48.0671 33.4908 50.3335L37.3368 51.2492C38.6646 51.5697 39.9009 51.7758 41.0455 51.8673Z" stroke="#0E1428" stroke-width="2.57546" stroke-linecap="round" stroke-linejoin="round"/>
<path d="M108.936 69.0008C104.89 69.0008 101.495 68.3963 98.7514 67.1872C96.0077 65.9316 93.8918 64.3272 92.4037 62.3741C90.9621 60.3745 90.1948 58.2586 90.1018 56.0264C90.1018 55.6544 90.2413 55.3289 90.5203 55.0499C90.8459 54.7243 91.2179 54.5616 91.6364 54.5616H95.1939C95.7519 54.5616 96.1705 54.7011 96.4495 54.9801C96.7285 55.2591 96.9145 55.5846 97.0075 55.9567C97.2401 57.0728 97.7981 58.1888 98.6817 59.3049C99.6117 60.3745 100.891 61.2813 102.518 62.0253C104.192 62.7229 106.331 63.0717 108.936 63.0717C112.935 63.0717 115.865 62.3741 117.725 60.979C119.631 59.5374 120.585 57.6308 120.585 55.2591C120.585 53.6315 120.073 52.3294 119.05 51.3528C118.073 50.3298 116.562 49.423 114.516 48.6324C112.47 47.8419 109.819 46.9815 106.564 46.0515C103.169 45.0749 100.356 44.0053 98.1236 42.8428C95.8915 41.6802 94.2173 40.2386 93.1013 38.518C92.0317 36.7973 91.4969 34.6117 91.4969 31.961C91.4969 29.4498 92.1712 27.2177 93.5198 25.2645C94.8684 23.2649 96.7983 21.6838 99.3094 20.5212C101.867 19.3586 104.96 18.7773 108.587 18.7773C111.47 18.7773 113.981 19.1726 116.12 19.9632C118.306 20.7072 120.12 21.7303 121.561 23.0324C123.003 24.288 124.096 25.6598 124.84 27.1479C125.584 28.5895 125.979 30.0079 126.026 31.403C126.026 31.7285 125.909 32.054 125.677 32.3795C125.444 32.6586 125.072 32.7981 124.561 32.7981H120.864C120.538 32.7981 120.189 32.7051 119.817 32.519C119.492 32.333 119.236 31.9843 119.05 31.4727C118.771 29.5661 117.701 27.9617 115.841 26.6596C113.981 25.3576 111.563 24.7065 108.587 24.7065C105.564 24.7065 103.099 25.2878 101.193 26.4504C99.3327 27.613 98.4026 29.4266 98.4026 31.8913C98.4026 33.4724 98.8444 34.7977 99.728 35.8673C100.612 36.8903 102.007 37.7972 103.913 38.5877C105.82 39.3783 108.308 40.2153 111.377 41.0989C115.097 42.122 118.143 43.2148 120.515 44.3774C122.887 45.4934 124.63 46.9118 125.747 48.6324C126.909 50.3065 127.49 52.4689 127.49 55.1196C127.49 58.0493 126.723 60.5605 125.188 62.6531C123.654 64.6993 121.491 66.2804 118.701 67.3965C115.958 68.466 112.702 69.0008 108.936 69.0008Z" fill="#0E1428"/>
<path d="M149.887 68.3033C147.282 68.3033 145.167 67.815 143.539 66.8384C141.911 65.8153 140.725 64.397 139.981 62.5834C139.237 60.7232 138.865 58.5376 138.865 56.0264V37.6111H133.424C132.959 37.6111 132.564 37.4716 132.239 37.1926C131.96 36.8671 131.82 36.4718 131.82 36.0068V33.6351C131.82 33.1701 131.96 32.7981 132.239 32.519C132.564 32.1935 132.959 32.0308 133.424 32.0308H138.865V20.3817C138.865 19.9167 139.005 19.5446 139.284 19.2656C139.609 18.9401 140.005 18.7773 140.47 18.7773H143.748C144.213 18.7773 144.585 18.9401 144.864 19.2656C145.19 19.5446 145.353 19.9167 145.353 20.3817V32.0308H154.002C154.467 32.0308 154.839 32.1935 155.118 32.519C155.444 32.7981 155.606 33.1701 155.606 33.6351V36.0068C155.606 36.4718 155.444 36.8671 155.118 37.1926C154.839 37.4716 154.467 37.6111 154.002 37.6111H145.353V55.5381C145.353 57.7238 145.725 59.4444 146.469 60.7C147.213 61.9556 148.538 62.5834 150.445 62.5834H154.7C155.165 62.5834 155.537 62.7461 155.816 63.0717C156.141 63.3507 156.304 63.7227 156.304 64.1877V66.6989C156.304 67.1639 156.141 67.5592 155.816 67.8847C155.537 68.1638 155.165 68.3033 154.7 68.3033H149.887Z" fill="#0E1428"/>
<path d="M164.579 68.3033C164.114 68.3033 163.718 68.1638 163.393 67.8847C163.114 67.5592 162.974 67.1639 162.974 66.6989V33.6351C162.974 33.1701 163.114 32.7981 163.393 32.519C163.718 32.1935 164.114 32.0308 164.579 32.0308H167.927C168.392 32.0308 168.764 32.1935 169.043 32.519C169.322 32.7981 169.462 33.1701 169.462 33.6351V66.6989C169.462 67.1639 169.322 67.5592 169.043 67.8847C168.764 68.1638 168.392 68.3033 167.927 68.3033H164.579ZM164.021 25.2645C163.556 25.2645 163.16 25.125 162.835 24.846C162.556 24.5205 162.416 24.1252 162.416 23.6602V19.8934C162.416 19.4284 162.556 19.0564 162.835 18.7773C163.16 18.4518 163.556 18.2891 164.021 18.2891H168.415C168.88 18.2891 169.252 18.4518 169.531 18.7773C169.857 19.0564 170.02 19.4284 170.02 19.8934V23.6602C170.02 24.1252 169.857 24.5205 169.531 24.846C169.252 25.125 168.88 25.2645 168.415 25.2645H164.021Z" fill="#0E1428"/>
<path d="M194.653 69.0008C191.351 69.0008 188.491 68.373 186.073 67.1174C183.701 65.8154 181.864 63.9785 180.562 61.6068C179.26 59.1886 178.563 56.3054 178.47 52.9572C178.423 52.2597 178.4 51.3296 178.4 50.167C178.4 49.0044 178.423 48.0744 178.47 47.3768C178.563 44.0286 179.26 41.1686 180.562 38.797C181.864 36.3788 183.701 34.5419 186.073 33.2863C188.491 31.9843 191.351 31.3332 194.653 31.3332C197.35 31.3332 199.652 31.7052 201.559 32.4493C203.512 33.1933 205.116 34.1467 206.372 35.3092C207.627 36.4718 208.557 37.7274 209.162 39.076C209.813 40.4246 210.162 41.7034 210.208 42.9125C210.255 43.3776 210.115 43.7496 209.79 44.0286C209.464 44.3076 209.069 44.4471 208.604 44.4471H205.256C204.791 44.4471 204.442 44.3541 204.209 44.1681C203.977 43.9356 203.744 43.5636 203.512 43.052C202.675 40.7734 201.535 39.169 200.094 38.2389C198.652 37.3089 196.862 36.8438 194.723 36.8438C191.932 36.8438 189.654 37.7042 187.887 39.4248C186.166 41.1454 185.236 43.9123 185.096 47.7256C185.05 49.3997 185.05 51.0273 185.096 52.6084C185.236 56.4682 186.166 59.2584 187.887 60.979C189.654 62.6531 191.932 63.4902 194.723 63.4902C196.862 63.4902 198.652 63.0252 200.094 62.0951C201.535 61.165 202.675 59.5607 203.512 57.282C203.744 56.7705 203.977 56.4217 204.209 56.2357C204.442 56.0032 204.791 55.8869 205.256 55.8869H208.604C209.069 55.8869 209.464 56.0264 209.79 56.3054C210.115 56.5845 210.255 56.9565 210.208 57.4215C210.162 58.3981 209.952 59.3979 209.58 60.421C209.208 61.444 208.604 62.4904 207.767 63.5599C206.976 64.583 205.976 65.5131 204.767 66.3501C203.558 67.1407 202.093 67.7917 200.373 68.3033C198.699 68.7683 196.792 69.0008 194.653 69.0008Z" fill="#0E1428"/>
<path d="M220.166 68.3033C219.701 68.3033 219.306 68.1638 218.98 67.8847C218.701 67.5592 218.562 67.1639 218.562 66.6989V20.3817C218.562 19.9167 218.701 19.5446 218.98 19.2656C219.306 18.9401 219.701 18.7773 220.166 18.7773H223.445C223.91 18.7773 224.282 18.9401 224.561 19.2656C224.886 19.5446 225.049 19.9167 225.049 20.3817V44.6564L238.791 33.2166C239.349 32.7516 239.767 32.4493 240.046 32.3098C240.372 32.1238 240.883 32.0308 241.581 32.0308H245.278C245.696 32.0308 246.045 32.1703 246.324 32.4493C246.603 32.7283 246.743 33.0771 246.743 33.4956C246.743 33.6816 246.673 33.8909 246.534 34.1234C246.441 34.3559 246.231 34.5884 245.906 34.821L229.792 48.2139L247.65 65.5828C248.208 66.0479 248.487 66.4664 248.487 66.8384C248.487 67.2569 248.347 67.6057 248.068 67.8847C247.789 68.1638 247.44 68.3033 247.022 68.3033H243.395C242.697 68.3033 242.186 68.2335 241.86 68.094C241.534 67.908 241.116 67.5825 240.604 67.1174L225.049 52.2597V66.6989C225.049 67.1639 224.886 67.5592 224.561 67.8847C224.282 68.1638 223.91 68.3033 223.445 68.3033H220.166Z" fill="#0E1428"/>
<path d="M256.064 68.3033C255.599 68.3033 255.203 68.1638 254.878 67.8847C254.599 67.5592 254.459 67.1639 254.459 66.6989V33.6351C254.459 33.1701 254.599 32.7981 254.878 32.519C255.203 32.1935 255.599 32.0308 256.064 32.0308H259.412C259.877 32.0308 260.249 32.1935 260.528 32.519C260.807 32.7981 260.947 33.1701 260.947 33.6351V66.6989C260.947 67.1639 260.807 67.5592 260.528 67.8847C260.249 68.1638 259.877 68.3033 259.412 68.3033H256.064ZM255.506 25.2645C255.041 25.2645 254.645 25.125 254.32 24.846C254.041 24.5205 253.901 24.1252 253.901 23.6602V19.8934C253.901 19.4284 254.041 19.0564 254.32 18.7773C254.645 18.4518 255.041 18.2891 255.506 18.2891H259.9C260.365 18.2891 260.737 18.4518 261.016 18.7773C261.342 19.0564 261.505 19.4284 261.505 19.8934V23.6602C261.505 24.1252 261.342 24.5205 261.016 24.846C260.737 25.125 260.365 25.2645 259.9 25.2645H255.506Z" fill="#0E1428"/>
<path d="M285.929 69.0008C281.139 69.0008 277.326 67.536 274.489 64.6063C271.652 61.6301 270.094 57.5843 269.815 52.4689C269.769 51.8644 269.746 51.0971 269.746 50.167C269.746 49.1904 269.769 48.3999 269.815 47.7954C270.001 44.4936 270.769 41.6104 272.117 39.1458C273.466 36.6346 275.303 34.7047 277.628 33.3561C280 32.0075 282.766 31.3332 285.929 31.3332C289.463 31.3332 292.416 32.0773 294.788 33.5654C297.206 35.0535 299.043 37.1694 300.298 39.9131C301.554 42.6567 302.182 45.8655 302.182 49.5392V50.7251C302.182 51.2366 302.019 51.6319 301.693 51.9109C301.414 52.1899 301.042 52.3294 300.577 52.3294H276.442C276.442 52.3759 276.442 52.4689 276.442 52.6084C276.442 52.7479 276.442 52.8642 276.442 52.9572C276.535 54.8638 276.954 56.6542 277.698 58.3283C278.442 59.9559 279.511 61.2813 280.906 62.3044C282.301 63.3274 283.976 63.839 285.929 63.839C287.603 63.839 288.998 63.5832 290.114 63.0717C291.23 62.5601 292.137 62.0021 292.834 61.3975C293.532 60.7465 293.997 60.2582 294.229 59.9327C294.648 59.3282 294.974 58.9794 295.206 58.8864C295.439 58.7469 295.811 58.6771 296.322 58.6771H299.67C300.135 58.6771 300.507 58.8166 300.786 59.0956C301.112 59.3282 301.251 59.6769 301.205 60.142C301.158 60.8395 300.786 61.6998 300.089 62.7229C299.391 63.6995 298.392 64.676 297.089 65.6526C295.787 66.6292 294.206 67.443 292.346 68.094C290.486 68.6986 288.347 69.0008 285.929 69.0008ZM276.442 47.5163H295.555V47.3071C295.555 45.2144 295.16 43.3543 294.369 41.7267C293.625 40.0991 292.532 38.8202 291.091 37.8902C289.649 36.9136 287.928 36.4253 285.929 36.4253C283.929 36.4253 282.208 36.9136 280.767 37.8902C279.372 38.8202 278.302 40.0991 277.558 41.7267C276.814 43.3543 276.442 45.2144 276.442 47.3071V47.5163Z" fill="#0E1428"/>
<path d="M323.078 69.0008C320.474 69.0008 318.242 68.6753 316.382 68.0243C314.521 67.3732 313.01 66.5827 311.847 65.6526C310.685 64.7225 309.801 63.7925 309.197 62.8624C308.639 61.9323 308.337 61.1883 308.29 60.6302C308.243 60.1187 308.406 59.7234 308.778 59.4444C309.15 59.1654 309.522 59.0259 309.894 59.0259H312.964C313.243 59.0259 313.452 59.0724 313.591 59.1654C313.777 59.2119 314.01 59.3979 314.289 59.7234C314.893 60.3745 315.568 61.0255 316.312 61.6766C317.056 62.3276 317.963 62.8624 319.032 63.2809C320.148 63.6995 321.52 63.9087 323.148 63.9087C325.519 63.9087 327.473 63.4669 329.007 62.5834C330.542 61.6533 331.309 60.3047 331.309 58.5376C331.309 57.375 330.984 56.445 330.333 55.7474C329.728 55.0499 328.612 54.4221 326.984 53.864C325.403 53.306 323.218 52.7247 320.427 52.1202C317.637 51.4691 315.428 50.6786 313.801 49.7485C312.173 48.7719 311.01 47.6326 310.313 46.3305C309.615 44.9819 309.267 43.4706 309.267 41.7964C309.267 40.0758 309.778 38.425 310.801 36.8438C311.824 35.2162 313.312 33.8909 315.265 32.8678C317.265 31.8447 319.753 31.3332 322.729 31.3332C325.147 31.3332 327.217 31.6355 328.937 32.24C330.658 32.8446 332.076 33.6119 333.192 34.5419C334.309 35.4255 335.146 36.3091 335.704 37.1926C336.262 38.0762 336.564 38.8202 336.61 39.4248C336.657 39.8898 336.517 40.2851 336.192 40.6106C335.866 40.8896 335.494 41.0291 335.076 41.0291H332.146C331.821 41.0291 331.542 40.9594 331.309 40.8199C331.123 40.6804 330.937 40.5176 330.751 40.3316C330.286 39.727 329.728 39.1225 329.077 38.518C328.472 37.9134 327.659 37.4251 326.636 37.0531C325.659 36.6346 324.357 36.4253 322.729 36.4253C320.404 36.4253 318.66 36.9136 317.498 37.8902C316.335 38.8667 315.754 40.0991 315.754 41.5872C315.754 42.4707 316.01 43.2613 316.521 43.9588C317.033 44.6564 318.009 45.2842 319.451 45.8422C320.892 46.4003 323.032 47.0048 325.868 47.6558C328.937 48.2604 331.356 49.0742 333.123 50.0973C334.89 51.1203 336.145 52.3062 336.889 53.6548C337.634 55.0034 338.006 56.5612 338.006 58.3283C338.006 60.2815 337.424 62.0718 336.262 63.6995C335.146 65.3271 333.472 66.6292 331.239 67.6057C329.054 68.5358 326.333 69.0008 323.078 69.0008Z" fill="#0E1428"/>
</svg>
